<?xml version="1.0" encoding="UTF-8"?>
<svg xmlns="http://www.w3.org/2000/svg" viewBox="0 0 64 64">
  <!-- white rounded background -->
  <rect width="64" height="64" rx="12" ry="12" fill="#ffffff"/>
  <!-- head -->
  <circle cx="32" cy="36" r="20" fill="#000000"/>
  <!-- cow patches -->
  <path d="M18 30c3-4 6-6 10-5s4 3 7 3 7-2 10 0 3 5 1 8-4 4-8 5-7 1-10-1-5-4-6-7z"
        fill="#ffffff"/>
  <!-- cat ears -->
  <path d="M20 18l-6-8 8 2zM44 18l6-8-8 2z" fill="#000000"/>
  <!-- eyes -->
  <circle cx="25" cy="34" r="4" fill="#ffffff"/>
  <circle cx="39" cy="34" r="4" fill="#ffffff"/>
  <circle cx="25" cy="34" r="2" fill="#000000"/>
  <circle cx="39" cy="34" r="2" fill="#000000"/>
  <!-- nose / mouth -->
  <ellipse cx="32" cy="44" rx="6" ry="3" fill="#ffffff"/>
  <path d="M28 44q4 3 8 0" stroke="#000" stroke-width="2" fill="none" stroke-linecap="round"/>
</svg>
